<svg xmlns="http://www.w3.org/2000/svg" xmlns:xlink="http://www.w3.org/1999/xlink" contentStyleType="text/css" data-diagram-type="DESCRIPTION" height="548px" preserveAspectRatio="none" style="width:1346px;height:548px;background:#FFFFFF;" version="1.1" viewBox="0 0 1346 548" width="1346px" zoomAndPan="magnify"><defs/><g><!--cluster Puesto Fronterizo (Control Integrado)--><g class="cluster" data-entity="Puesto Fronterizo (Control Integrado)" data-source-line="6" data-uid="ent0006" id="cluster_Puesto Fronterizo (Control Integrado)"><polygon fill="none" points="265.0438,16,275.0438,6,678.0438,6,678.0438,262.6,668.0438,272.6,265.0438,272.6,265.0438,16" style="stroke:#181818;stroke-width:1;"/><line style="stroke:#181818;stroke-width:1;" x1="668.0438" x2="678.0438" y1="16" y2="6"/><line style="stroke:#181818;stroke-width:1;" x1="265.0438" x2="668.0438" y1="16" y2="16"/><line style="stroke:#181818;stroke-width:1;" x1="668.0438" x2="668.0438" y1="16" y2="272.6"/><text fill="#000000" font-family="sans-serif" font-size="14" font-weight="bold" lengthAdjust="spacing" textLength="298.7441" x="318.1718" y="31.9951">Puesto Fronterizo (Control Integrado)</text></g><!--cluster Tablet del Fiscalizador--><g class="cluster" data-entity="Tablet del Fiscalizador" data-source-line="15" data-uid="ent0013" id="cluster_Tablet del Fiscalizador"><polygon fill="none" points="702.0438,180.3,712.0438,170.3,956.0438,170.3,956.0438,262.6,946.0438,272.6,702.0438,272.6,702.0438,180.3" style="stroke:#181818;stroke-width:1;"/><line style="stroke:#181818;stroke-width:1;" x1="946.0438" x2="956.0438" y1="180.3" y2="170.3"/><line style="stroke:#181818;stroke-width:1;" x1="702.0438" x2="946.0438" y1="180.3" y2="180.3"/><line style="stroke:#181818;stroke-width:1;" x1="946.0438" x2="946.0438" y1="180.3" y2="272.6"/><text fill="#000000" font-family="sans-serif" font-size="14" font-weight="bold" lengthAdjust="spacing" textLength="178.2471" x="735.9203" y="196.2951">Tablet del Fiscalizador</text></g><!--cluster Servidor Central de Control Fronterizo--><g class="cluster" data-entity="Servidor Central de Control Fronterizo" data-source-line="23" data-uid="ent0017" id="cluster_Servidor Central de Control Fronterizo"><polygon fill="none" points="296.0438,315.6,306.0438,305.6,779.0438,305.6,779.0438,521.19,769.0438,531.19,296.0438,531.19,296.0438,315.6" style="stroke:#181818;stroke-width:1;"/><line style="stroke:#181818;stroke-width:1;" x1="769.0438" x2="779.0438" y1="315.6" y2="305.6"/><line style="stroke:#181818;stroke-width:1;" x1="296.0438" x2="769.0438" y1="315.6" y2="315.6"/><line style="stroke:#181818;stroke-width:1;" x1="769.0438" x2="769.0438" y1="315.6" y2="531.19"/><text fill="#000000" font-family="sans-serif" font-size="14" font-weight="bold" lengthAdjust="spacing" textLength="303.126" x="381.9808" y="331.5951">Servidor Central de Control Fronterizo</text></g><!--entity UI--><g class="entity" data-entity="UI" data-source-line="7" data-uid="ent0007" id="entity_UI"><rect fill="#F1F1F1" height="46.2969" rx="2.5" ry="2.5" style="stroke:#181818;stroke-width:0.5;" width="217.5156" x="403.2838" y="210.3"/><rect fill="#F1F1F1" height="10" style="stroke:#181818;stroke-width:0.5;" width="15" x="600.7995" y="215.3"/><rect fill="#F1F1F1" height="2" style="stroke:#181818;stroke-width:0.5;" width="4" x="598.7995" y="217.3"/><rect fill="#F1F1F1" height="2" style="stroke:#181818;stroke-width:0.5;" width="4" x="598.7995" y="221.3"/><text fill="#000000" font-family="sans-serif" font-size="14" lengthAdjust="spacing" textLength="177.5156" x="418.2838" y="243.2951">UI de Registro de Ingreso</text></g><!--entity Esc?ner QR / DNI--><g class="entity" data-entity="Esc&#225;ner QR / DNI" data-source-line="8" data-uid="ent0008" id="entity_Esc&#225;ner QR / DNI"><rect fill="#F1F1F1" height="46.2969" rx="2.5" ry="2.5" style="stroke:#181818;stroke-width:0.5;" width="159.8545" x="281.1138" y="46"/><rect fill="#F1F1F1" height="10" style="stroke:#181818;stroke-width:0.5;" width="15" x="420.9683" y="51"/><rect fill="#F1F1F1" height="2" style="stroke:#181818;stroke-width:0.5;" width="4" x="418.9683" y="53"/><rect fill="#F1F1F1" height="2" style="stroke:#181818;stroke-width:0.5;" width="4" x="418.9683" y="57"/><text fill="#000000" font-family="sans-serif" font-size="14" lengthAdjust="spacing" textLength="119.8545" x="296.1138" y="78.9951">Esc&#225;ner QR / DNI</text></g><!--entity M?dulo de Impresi?n--><g class="entity" data-entity="M&#243;dulo de Impresi&#243;n" data-source-line="9" data-uid="ent0009" id="entity_M&#243;dulo de Impresi&#243;n"><rect fill="#F1F1F1" height="46.2969" rx="2.5" ry="2.5" style="stroke:#181818;stroke-width:0.5;" width="186.9043" x="475.5938" y="46"/><rect fill="#F1F1F1" height="10" style="stroke:#181818;stroke-width:0.5;" width="15" x="642.4981" y="51"/><rect fill="#F1F1F1" height="2" style="stroke:#181818;stroke-width:0.5;" width="4" x="640.4981" y="53"/><rect fill="#F1F1F1" height="2" style="stroke:#181818;stroke-width:0.5;" width="4" x="640.4981" y="57"/><text fill="#000000" font-family="sans-serif" font-size="14" lengthAdjust="spacing" textLength="146.9043" x="490.5938" y="78.9951">M&#243;dulo de Impresi&#243;n</text></g><!--entity App Fiscalizaci?n M?vil--><g class="entity" data-entity="App Fiscalizaci&#243;n M&#243;vil" data-source-line="16" data-uid="ent0014" id="entity_App Fiscalizaci&#243;n M&#243;vil"><rect fill="#F1F1F1" height="46.2969" rx="2.5" ry="2.5" style="stroke:#181818;stroke-width:0.5;" width="201.2051" x="718.4438" y="210.3"/><rect fill="#F1F1F1" height="10" style="stroke:#181818;stroke-width:0.5;" width="15" x="899.6489" y="215.3"/><rect fill="#F1F1F1" height="2" style="stroke:#181818;stroke-width:0.5;" width="4" x="897.6489" y="217.3"/><rect fill="#F1F1F1" height="2" style="stroke:#181818;stroke-width:0.5;" width="4" x="897.6489" y="221.3"/><text fill="#000000" font-family="sans-serif" font-size="14" lengthAdjust="spacing" textLength="161.2051" x="733.4438" y="243.2951">App Fiscalizaci&#243;n M&#243;vil</text></g><!--entity Red Segura / VPN--><g class="entity" data-entity="Red Segura / VPN" data-source-line="20" data-uid="ent0016" id="entity_Red Segura / VPN"><path d="M19.4021,54.4056 C22.8631,49.1601 27.285,49.6945 29.6154,55.4548 C32.4703,49.0698 38.5193,48.8697 42.3587,54.4021 C45.2767,50.031 49.7272,49.7389 52.8448,54.1642 C55.1562,48.4587 60.4477,45.8705 64.968,51.8779 C68.4134,48.0363 72.5263,47.4175 74.9487,52.9654 C77.7301,46.2127 83.0334,46.9601 86.7845,51.9915 C90.6569,45.3507 94.9295,46.3683 99.0085,51.782 C102.3141,46.3794 106.7348,47.138 109.8914,51.9409 C114.4046,46.5975 117.8817,47.6108 121.4182,52.9908 C125.5441,48.1693 129.1138,47.6794 132.2696,53.9406 C136.9392,48.2219 141.3045,48.6331 144.612,55.2982 C147.8604,50.3182 151.2554,50.0284 155.1995,54.5206 C164.9322,56.2459 167.0664,61.8272 162.5454,70.2214 C166.874,78.1018 165.4795,83.3986 156.2384,85.7773 C154.0867,92.8093 148.3159,92.1018 144.2808,87.7569 C141.386,93.3629 136.3959,93.3634 133.6181,87.6467 C131.5051,93.7929 126.8556,95.5751 121.7887,90.8654 C117.6434,95.9193 113.8452,96.8359 109.6372,90.9349 C107.4064,96.8389 102.5456,98.7601 98.0514,93.228 C95.0831,97.7296 92.1276,98.6998 88.127,94.3906 C83.7746,100.1123 78.5149,100.3738 75.2511,93.2954 C71.4289,98.7991 66.5281,98.4363 63.5532,92.434 C59.6462,96.2383 54.4991,95.7593 53.315,89.6281 C49.3172,95.4519 44.0494,94.5246 41.8617,87.9553 C37.6564,93.139 33.02,93.1684 29.8545,86.8682 C25.644,91.0534 22.0744,90.8172 18.7255,85.8236 C9.3122,85.5139 6.8578,79.1524 10.0515,71.3088 C6,61.6286 8.2632,55.6829 19.4021,54.4056" fill="#F1F1F1" style="stroke:#181818;stroke-width:0.5;"/><text fill="#000000" font-family="sans-serif" font-size="14" lengthAdjust="spacing" textLength="123.3818" x="24.3538" y="73.9951">Red Segura / VPN</text></g><!--entity Motor de Validaci?n de Ingreso--><g class="entity" data-entity="Motor de Validaci&#243;n de Ingreso" data-source-line="24" data-uid="ent0018" id="entity_Motor de Validaci&#243;n de Ingreso"><rect fill="#F1F1F1" height="46.2969" rx="2.5" ry="2.5" style="stroke:#181818;stroke-width:0.5;" width="257.7998" x="505.1438" y="345.6"/><rect fill="#F1F1F1" height="10" style="stroke:#181818;stroke-width:0.5;" width="15" x="742.9436" y="350.6"/><rect fill="#F1F1F1" height="2" style="stroke:#181818;stroke-width:0.5;" width="4" x="740.9436" y="352.6"/><rect fill="#F1F1F1" height="2" style="stroke:#181818;stroke-width:0.5;" width="4" x="740.9436" y="356.6"/><text fill="#000000" font-family="sans-serif" font-size="14" lengthAdjust="spacing" textLength="217.7998" x="520.1438" y="378.5951">Motor de Validaci&#243;n de Ingreso</text></g><!--entity Gestor de Declaraciones--><g class="entity" data-entity="Gestor de Declaraciones" data-source-line="25" data-uid="ent0019" id="entity_Gestor de Declaraciones"><rect fill="#F1F1F1" height="46.2969" rx="2.5" ry="2.5" style="stroke:#181818;stroke-width:0.5;" width="211.7939" x="312.1438" y="468.89"/><rect fill="#F1F1F1" height="10" style="stroke:#181818;stroke-width:0.5;" width="15" x="503.9378" y="473.89"/><rect fill="#F1F1F1" height="2" style="stroke:#181818;stroke-width:0.5;" width="4" x="501.9378" y="475.89"/><rect fill="#F1F1F1" height="2" style="stroke:#181818;stroke-width:0.5;" width="4" x="501.9378" y="479.89"/><text fill="#000000" font-family="sans-serif" font-size="14" lengthAdjust="spacing" textLength="171.7939" x="327.1438" y="501.8851">Gestor de Declaraciones</text></g><!--entity Generador de Reportes--><g class="entity" data-entity="Generador de Reportes" data-source-line="26" data-uid="ent0020" id="entity_Generador de Reportes"><rect fill="#F1F1F1" height="46.2969" rx="2.5" ry="2.5" style="stroke:#181818;stroke-width:0.5;" width="203.8369" x="559.1238" y="468.89"/><rect fill="#F1F1F1" height="10" style="stroke:#181818;stroke-width:0.5;" width="15" x="742.9607" y="473.89"/><rect fill="#F1F1F1" height="2" style="stroke:#181818;stroke-width:0.5;" width="4" x="740.9607" y="475.89"/><rect fill="#F1F1F1" height="2" style="stroke:#181818;stroke-width:0.5;" width="4" x="740.9607" y="479.89"/><text fill="#000000" font-family="sans-serif" font-size="14" lengthAdjust="spacing" textLength="163.8369" x="574.1238" y="501.8851">Generador de Reportes</text></g><!--entity Viajero--><g class="entity" data-entity="Viajero" data-source-line="1" data-uid="ent0002" id="entity_Viajero"><ellipse cx="222.0489" cy="39.5" fill="#F1F1F1" rx="8" ry="8" style="stroke:#181818;stroke-width:0.5;"/><path d="M222.0489,47.5 L222.0489,74.5 M209.0489,55.5 L235.0489,55.5 M222.0489,74.5 L209.0489,89.5 M222.0489,74.5 L235.0489,89.5" fill="none" style="stroke:#181818;stroke-width:0.5;"/><text fill="#000000" font-family="sans-serif" font-size="14" lengthAdjust="spacing" textLength="48.8701" x="197.6138" y="103.9951">Viajero</text></g><!--entity Fiscalizador--><g class="entity" data-entity="Fiscalizador" data-source-line="2" data-uid="ent0003" id="entity_Fiscalizador"><ellipse cx="776.0477" cy="39.5" fill="#F1F1F1" rx="8" ry="8" style="stroke:#181818;stroke-width:0.5;"/><path d="M776.0477,47.5 L776.0477,74.5 M763.0477,55.5 L789.0477,55.5 M776.0477,74.5 L763.0477,89.5 M776.0477,74.5 L789.0477,89.5" fill="none" style="stroke:#181818;stroke-width:0.5;"/><text fill="#000000" font-family="sans-serif" font-size="14" lengthAdjust="spacing" textLength="82.4277" x="734.8338" y="103.9951">Fiscalizador</text></g><!--entity Sistema Externo Argentina/Chile--><g class="entity" data-entity="Sistema Externo Argentina/Chile" data-source-line="3" data-uid="ent0004" id="entity_Sistema Externo Argentina/Chile"><path d="M798.0338,479.39 C798.0338,469.39 922.0402,469.39 922.0402,469.39 C922.0402,469.39 1046.0465,469.39 1046.0465,479.39 L1046.0465,504.6869 C1046.0465,514.6869 922.0402,514.6869 922.0402,514.6869 C922.0402,514.6869 798.0338,514.6869 798.0338,504.6869 L798.0338,479.39" fill="#F1F1F1" style="stroke:#181818;stroke-width:0.5;"/><path d="M798.0338,479.39 C798.0338,489.39 922.0402,489.39 922.0402,489.39 C922.0402,489.39 1046.0465,489.39 1046.0465,479.39" fill="none" style="stroke:#181818;stroke-width:0.5;"/><text fill="#000000" font-family="sans-serif" font-size="14" lengthAdjust="spacing" textLength="228.0127" x="808.0338" y="506.3851">Sistema Externo Argentina/Chile</text></g><!--entity Base de Datos de Aduanas y PDI--><g class="entity" data-entity="Base de Datos de Aduanas y PDI" data-source-line="4" data-uid="ent0005" id="entity_Base de Datos de Aduanas y PDI"><path d="M1080.6438,479.39 C1080.6438,469.39 1205.0432,469.39 1205.0432,469.39 C1205.0432,469.39 1329.4427,469.39 1329.4427,479.39 L1329.4427,504.6869 C1329.4427,514.6869 1205.0432,514.6869 1205.0432,514.6869 C1205.0432,514.6869 1080.6438,514.6869 1080.6438,504.6869 L1080.6438,479.39" fill="#F1F1F1" style="stroke:#181818;stroke-width:0.5;"/><path d="M1080.6438,479.39 C1080.6438,489.39 1205.0432,489.39 1205.0432,489.39 C1205.0432,489.39 1329.4427,489.39 1329.4427,479.39" fill="none" style="stroke:#181818;stroke-width:0.5;"/><text fill="#000000" font-family="sans-serif" font-size="14" lengthAdjust="spacing" textLength="228.7988" x="1090.6438" y="506.3851">Base de Datos de Aduanas y PDI</text></g><!--link Viajero to UI--><g class="link" data-entity-1="Viajero" data-entity-2="UI" data-source-line="10" data-uid="lnk10" id="link_Viajero_UI"><path d="M218.2938,107.38 C218.6638,123.53 222.0438,141.6 233.0438,154.3 C255.7238,180.49 328.8976,199.9573 397.0876,213.4273" fill="none" id="Viajero-to-UI" style="stroke:#181818;stroke-width:1;"/><polygon fill="#181818" points="402.9738,214.59,394.9196,208.9217,398.0686,213.621,393.3693,216.77,402.9738,214.59" style="stroke:#181818;stroke-width:1;"/><text fill="#000000" font-family="sans-serif" font-size="13" lengthAdjust="spacing" textLength="184.6343" x="234.0438" y="150.3669">ingresa datos y documentos</text></g><!--link Fiscalizador to UI--><g class="link" data-entity-1="Fiscalizador" data-entity-2="UI" data-source-line="11" data-uid="lnk11" id="link_Fiscalizador_UI"><path d="M734.4838,95.45 C713.8838,108.01 688.6338,123.42 666.0438,137.3 C625.7438,162.05 584.7053,187.4316 553.5153,206.7416" fill="none" id="Fiscalizador-to-UI" style="stroke:#181818;stroke-width:1;"/><polygon fill="#181818" points="548.4138,209.9,558.1716,208.5634,552.665,207.268,553.9604,201.7615,548.4138,209.9" style="stroke:#181818;stroke-width:1;"/><text fill="#000000" font-family="sans-serif" font-size="13" lengthAdjust="spacing" textLength="118.936" x="667.0438" y="150.3669">consulta y verifica</text></g><!--link Esc?ner QR / DNI to UI--><g class="link" data-entity-1="Esc&#225;ner QR / DNI" data-entity-2="UI" data-source-line="12" data-uid="lnk12" id="link_Esc&#225;ner QR / DNI_UI"><path d="M382.0438,92.72 C410.8038,123.64 458.0965,174.4675 486.8965,205.4175" fill="none" id="Esc&#225;ner QR / DNI-to-UI" style="stroke:#181818;stroke-width:1;"/><polygon fill="#181818" points="490.9838,209.81,487.7811,200.4964,487.5777,206.1496,481.9245,205.9462,490.9838,209.81" style="stroke:#181818;stroke-width:1;"/><text fill="#000000" font-family="sans-serif" font-size="13" lengthAdjust="spacing" textLength="125.4741" x="437.0438" y="150.3669">escaneo formulario</text></g><!--link Fiscalizador to App Fiscalizaci?n M?vil--><g class="link" data-entity-1="Fiscalizador" data-entity-2="App Fiscalizaci&#243;n M&#243;vil" data-source-line="17" data-uid="lnk15" id="link_Fiscalizador_App Fiscalizaci&#243;n M&#243;vil"><path d="M786.0138,107.79 C794.4038,139.44 804.577,177.8302 811.567,204.2102" fill="none" id="Fiscalizador-to-App Fiscalizaci&#243;n M&#243;vil" style="stroke:#181818;stroke-width:1;"/><polygon fill="#181818" points="813.1038,210.01,814.6652,200.2857,811.8232,205.1768,806.9321,202.3348,813.1038,210.01" style="stroke:#181818;stroke-width:1;"/><text fill="#000000" font-family="sans-serif" font-size="13" lengthAdjust="spacing" textLength="102.3813" x="798.0438" y="150.3669">revisi&#243;n remota</text></g><!--link UI to Motor de Validaci?n de Ingreso--><g class="link" data-entity-1="UI" data-entity-2="Motor de Validaci&#243;n de Ingreso" data-source-line="27" data-uid="lnk21" id="link_UI_Motor de Validaci&#243;n de Ingreso"><path d="M532.7438,257.06 C555.3138,281.72 587.153,316.5139 609.603,341.0439" fill="none" id="UI-to-Motor de Validaci&#243;n de Ingreso" style="stroke:#181818;stroke-width:1;"/><polygon fill="#181818" points="613.6538,345.47,610.5283,336.1302,610.2781,341.7815,604.6268,341.5313,613.6538,345.47" style="stroke:#181818;stroke-width:1;"/></g><!--link App Fiscalizaci?n M?vil to Motor de Validaci?n de Ingreso--><g class="link" data-entity-1="App Fiscalizaci&#243;n M&#243;vil" data-entity-2="Motor de Validaci&#243;n de Ingreso" data-source-line="28" data-uid="lnk22" id="link_App Fiscalizaci&#243;n M&#243;vil_Motor de Validaci&#243;n de Ingreso"><path d="M787.6638,257.06 C753.5438,281.65 704.2019,317.1926 670.1419,341.7326" fill="none" id="App Fiscalizaci&#243;n M&#243;vil-to-Motor de Validaci&#243;n de Ingreso" style="stroke:#181818;stroke-width:1;"/><polygon fill="#181818" points="665.2738,345.24,674.9142,343.2243,669.3306,342.3172,670.2377,336.7335,665.2738,345.24" style="stroke:#181818;stroke-width:1;"/></g><!--link Motor de Validaci?n de Ingreso to Base de Datos de Aduanas y PDI--><g class="link" data-entity-1="Motor de Validaci&#243;n de Ingreso" data-entity-2="Base de Datos de Aduanas y PDI" data-source-line="29" data-uid="lnk23" id="link_Motor de Validaci&#243;n de Ingreso_Base de Datos de Aduanas y PDI"><path d="M763.3638,392.33 C811.1338,401.04 865.6538,411.43 915.0438,421.89 C983.2738,436.35 1054.1989,453.311 1111.5989,467.491" fill="none" id="Motor de Validaci&#243;n de Ingreso-to-Base de Datos de Aduanas y PDI" style="stroke:#181818;stroke-width:1;"/><polygon fill="#181818" points="1117.4238,468.93,1109.6458,462.8883,1112.5698,467.7309,1107.7272,470.6548,1117.4238,468.93" style="stroke:#181818;stroke-width:1;"/></g><!--link Motor de Validaci?n de Ingreso to Gestor de Declaraciones--><g class="link" data-entity-1="Motor de Validaci&#243;n de Ingreso" data-entity-2="Gestor de Declaraciones" data-source-line="30" data-uid="lnk24" id="link_Motor de Validaci&#243;n de Ingreso_Gestor de Declaraciones"><path d="M593.9238,392.28 C555.2438,413.99 502.2753,443.7421 463.5453,465.4921" fill="none" id="Motor de Validaci&#243;n de Ingreso-to-Gestor de Declaraciones" style="stroke:#181818;stroke-width:1;"/><polygon fill="#181818" points="458.3138,468.43,468.1197,467.5108,462.6734,465.9817,464.2025,460.5355,458.3138,468.43" style="stroke:#181818;stroke-width:1;"/></g><!--link Motor de Validaci?n de Ingreso to Generador de Reportes--><g class="link" data-entity-1="Motor de Validaci&#243;n de Ingreso" data-entity-2="Generador de Reportes" data-source-line="31" data-uid="lnk25" id="link_Motor de Validaci&#243;n de Ingreso_Generador de Reportes"><path d="M639.0638,392.28 C643.9138,414.06 649.91,441.0334 654.75,462.7734" fill="none" id="Motor de Validaci&#243;n de Ingreso-to-Generador de Reportes" style="stroke:#181818;stroke-width:1;"/><polygon fill="#181818" points="656.0538,468.63,658.0024,458.9758,654.9673,463.7495,650.1936,460.7143,656.0538,468.63" style="stroke:#181818;stroke-width:1;"/></g><!--link Motor de Validaci?n de Ingreso to Sistema Externo Argentina/Chile--><g class="link" data-entity-1="Motor de Validaci&#243;n de Ingreso" data-entity-2="Sistema Externo Argentina/Chile" data-source-line="32" data-uid="lnk26" id="link_Motor de Validaci&#243;n de Ingreso_Sistema Externo Argentina/Chile"><path d="M687.5438,392.28 C739.5938,414.2 812.6542,444.9712 864.2742,466.7112" fill="none" id="Motor de Validaci&#243;n de Ingreso-to-Sistema Externo Argentina/Chile" style="stroke:#181818;stroke-width:1;"/><polygon fill="#181818" points="869.8038,469.04,863.062,461.8604,865.1958,467.0993,859.9569,469.2332,869.8038,469.04" style="stroke:#181818;stroke-width:1;"/><text fill="#000000" font-family="sans-serif" font-size="13" lengthAdjust="spacing" textLength="110.8999" x="796.0438" y="434.9569">consulta cruzada</text></g><!--SRC=[bLF1JXj13BtlLrXxeWV4lGUaD06q1r2Qb5og7CoCMGRDZYFFJ5Ie-Z7z1ZuXFrRFPcbI2K9wYHpFy_FpinTDOe65mqSIhh3_T-cYGU-UqR9K5XFUOIIevoucwX0kVYIIm32Iba9o0S_63yvJlGVzKdujmGGJnnACRCQ04PvWEcdggWgioNgQAIQ6I-6WbEwPuMIieR27HZEjg89FDVoi0BxVDeLdHgsg42vn4rgXo4jGtjkcO2wYsVmE9F1r1cSmkMcM9NkzUR7PRqkwbPQupKieByFKS7fwhWJm6LpFY61xsKzWsUHEP-Iew7rNTYM6Gym-eQBNEiAzC_Ysabq9AKyWXdkMBdiKnzMlLqU-uPsdf5BzF_q63qQhrIvjoXYWmwsTNxwbxm1SLGYjNU-4HXqdB1gCvsoXdf65ERLPKBKlfZUb-r-5SvArAot6QeoWBxQ-Bcsto47mDPTxKiH2DTX1mzxg2kQgt40Fcf1HEnJ5WUBmfXxs0_MxNx6axOiQsOzuJ8C3DXpDyH5cotJuxF-3w90dnpAyuznnzHz-xFkdRoJhrUa5_G40]--></g></svg>